<svg xmlns="http://www.w3.org/2000/svg" viewBox="0 0 1440 320"><path fill="#561f37" fill-opacity="1" d="M0,64L30,85.3C60,107,120,149,180,165.3C240,181,300,171,360,160C420,149,480,139,540,138.7C600,139,660,149,720,138.7C780,128,840,96,900,117.3C960,139,1020,213,1080,245.3C1140,277,1200,267,1260,234.7C1320,203,1380,149,1410,122.7L1440,96L1440,0L1410,0C1380,0,1320,0,1260,0C1200,0,1140,0,1080,0C1020,0,960,0,900,0C840,0,780,0,720,0C660,0,600,0,540,0C480,0,420,0,360,0C300,0,240,0,180,0C120,0,60,0,30,0L0,0Z"></path></svg>